<svg id="Calque_1" data-name="Calque 1" xmlns="http://www.w3.org/2000/svg" viewBox="0 0 151.85 45.99"><defs><style>.cls-1{fill:#000014;}</style></defs><title>logos-site</title><path class="cls-1" d="M24.37,41.16c-2.62,2.08-6,2.75-10.64,2.75H0V1.72H11.41c4,0,7.4.31,10,2A9.38,9.38,0,0,1,26,12.3a9.61,9.61,0,0,1-6.42,9.23v.12c5.69,1.17,9.36,4.71,9.36,10.28A11,11,0,0,1,24.37,41.16ZM17.22,7.59c-1.53-.86-3.06-1.16-5.81-1.16H6V19.82h5c2.94,0,4.89-.25,6.3-1.28A6.29,6.29,0,0,0,20,13C20,10,18.69,8.38,17.22,7.59Zm2.51,18.28c-2.08-1.4-4.71-1.53-7.4-1.53H6V39.08h6.36c2.69,0,5.32-.06,7.4-1.47a6.53,6.53,0,0,0,3.05-5.93A6.35,6.35,0,0,0,19.73,25.87Z"/><path class="cls-1" d="M89.4,40.18c-.86.86-3.85,4.4-11.62,4.4S63.11,38.71,63.11,29.42A14.65,14.65,0,0,1,78,14.32c7.76,0,10.94,3.79,11.25,4.15l-2.08,4.28a11.5,11.5,0,0,0-8.68-3.54c-5.14,0-9.42,3.91-9.42,10s3.85,10.33,9.48,10.33a12.07,12.07,0,0,0,8.8-3.67Z"/><path class="cls-1" d="M118.08,40.18c-.85.86-3.85,4.4-11.62,4.4S91.79,38.71,91.79,29.42a14.65,14.65,0,0,1,14.86-15.1c7.76,0,10.94,3.79,11.25,4.15l-2.08,4.28a11.5,11.5,0,0,0-8.68-3.54c-5.14,0-9.42,3.91-9.42,10s3.85,10.33,9.48,10.33A12,12,0,0,0,116,35.9Z"/><path class="cls-1" d="M136.46,44.58c-8.68,0-15.41-6-15.41-15.1s6.73-15.16,15.41-15.16,15.35,6.17,15.35,15.16S145.08,44.58,136.46,44.58Zm0-25.49c-5.87,0-9.48,4.52-9.48,10.21s3.61,10.27,9.48,10.27,9.42-4.53,9.42-10.27S142.27,19.09,136.46,19.09Z"/><path class="cls-1" d="M32.82,15.94H38.1v16c0,4.9,2.64,8.08,7.65,8.08s7.61-3.18,7.61-8.08v-16h5.27V32.06c0,7.67-4.25,12.75-12.88,12.75S32.82,39.68,32.82,32.1Z"/><path class="cls-1" d="M41.08,9.64A3.15,3.15,0,0,1,37.84,6.4a3.16,3.16,0,0,1,3.24-3.3,3.12,3.12,0,0,1,3.18,3.3A3.1,3.1,0,0,1,41.08,9.64Zm9.29,0A3.13,3.13,0,0,1,47.19,6.4a3.22,3.22,0,1,1,6.43,0A3.15,3.15,0,0,1,50.37,9.64Z"/></svg>