<svg id="Calque_1" data-name="Calque 1" xmlns="http://www.w3.org/2000/svg" viewBox="0 0 141.47 63.34"><defs><style>.cls-1{fill:#1d1d1b;}</style></defs><title>logos-site</title><path class="cls-1" d="M124,39.31q-1.83-3.5-1.83-10c0-4.31.55-7.48,1.66-9.53a5.47,5.47,0,0,1,5.13-3.06,4.79,4.79,0,0,1,3.9,1.63,7.16,7.16,0,0,1,1.37,4.7V37a6.34,6.34,0,0,1-1.37,4.3,4.66,4.66,0,0,1-3.7,1.56c-2.22,0-3.94-1.16-5.16-3.5m10.23-22.68a10.12,10.12,0,0,0-3.23-2,11.66,11.66,0,0,0-4-.63,11.49,11.49,0,0,0-5.06,1.1A10.7,10.7,0,0,0,118,18.23a15,15,0,0,0-2.47,4.93,22,22,0,0,0-.87,6.39,22.59,22.59,0,0,0,.9,6.57,15.51,15.51,0,0,0,2.54,5.06,11.31,11.31,0,0,0,3.93,3.26,11.05,11.05,0,0,0,5.09,1.17,10.4,10.4,0,0,0,3.44-.53,20.38,20.38,0,0,0,3.63-1.87v8c-.05.75-.1,1.5-.17,2.23a14,14,0,0,1-.37,2.15,6.46,6.46,0,0,1-2.16,3.62,5.71,5.71,0,0,1-3.77,1.36,4.55,4.55,0,0,1-3-.93,3,3,0,0,1-1.14-2.46,2.64,2.64,0,0,1,.2-.87l.2-.53a7,7,0,0,0,.47-1.37,6.57,6.57,0,0,0,.13-1.37A4,4,0,0,0,123.35,50a4.48,4.48,0,0,0-3.2-1.2,4.69,4.69,0,0,0-3.53,1.36,5.09,5.09,0,0,0-1.34,3.7,7.69,7.69,0,0,0,3.37,6.53q3.36,2.48,9,2.47,13.86,0,13.86-14.33v-34h-7.26Zm-42,22.68q-1.83-3.5-1.83-10c0-4.31.55-7.48,1.67-9.53a5.46,5.46,0,0,1,5.13-3.06A4.78,4.78,0,0,1,101,18.39a7.16,7.16,0,0,1,1.37,4.7V37a6.34,6.34,0,0,1-1.37,4.3,4.65,4.65,0,0,1-3.69,1.56c-2.23,0-4-1.16-5.17-3.5M102.4,16.63a10,10,0,0,0-3.23-2,11.64,11.64,0,0,0-4-.63,11.5,11.5,0,0,0-5.07,1.1,10.7,10.7,0,0,0-3.86,3.17,15,15,0,0,0-2.47,4.93,22.3,22.3,0,0,0-.86,6.39,22.59,22.59,0,0,0,.9,6.57,15.5,15.5,0,0,0,2.53,5.06,11.49,11.49,0,0,0,3.93,3.26,11.06,11.06,0,0,0,5.1,1.17,10.38,10.38,0,0,0,3.43-.53,19.73,19.73,0,0,0,3.63-1.87v8c-.05.75-.1,1.5-.17,2.23a14,14,0,0,1-.36,2.15,6.52,6.52,0,0,1-2.17,3.62,5.69,5.69,0,0,1-3.76,1.36,4.56,4.56,0,0,1-3-.93,3,3,0,0,1-1.13-2.46,2.41,2.41,0,0,1,.2-.87l.19-.53a6.37,6.37,0,0,0,.47-1.37,6.57,6.57,0,0,0,.13-1.37A4,4,0,0,0,91.54,50a4.48,4.48,0,0,0-3.2-1.2,4.7,4.7,0,0,0-3.53,1.36,5.09,5.09,0,0,0-1.33,3.7,7.71,7.71,0,0,0,3.36,6.53q3.36,2.48,9,2.47,13.86,0,13.86-14.33v-34H102.4ZM62.85,42.81a5.37,5.37,0,0,1-2.13-2.36,13.34,13.34,0,0,1-1.2-4.23,45.5,45.5,0,0,1-.37-6.33,45.3,45.3,0,0,1,.37-6.33,13.18,13.18,0,0,1,1.2-4.23A5.4,5.4,0,0,1,62.85,17,6.34,6.34,0,0,1,66,16.23a6.52,6.52,0,0,1,3.2.73,5.42,5.42,0,0,1,2.17,2.37,13.72,13.72,0,0,1,1.2,4.23,47.07,47.07,0,0,1,.36,6.33,47.28,47.28,0,0,1-.36,6.33,13.88,13.88,0,0,1-1.2,4.23,5.39,5.39,0,0,1-2.17,2.36,6.52,6.52,0,0,1-3.2.74,6.34,6.34,0,0,1-3.16-.74M55.49,18.29q-3.81,4.2-3.8,11.6t3.8,11.59q3.8,4.2,10.52,4.2t10.57-4.2q3.83-4.2,3.83-11.59t-3.83-11.6Q72.74,14.09,66,14.1T55.49,18.29M32,.57a6.06,6.06,0,0,1,.2,1.17A4.23,4.23,0,0,1,32,2.83H35a3.32,3.32,0,0,1,2.83,1,6.35,6.35,0,0,1,.77,3.63V35.35a16.43,16.43,0,0,0,.4,4.06,7.67,7.67,0,0,0,1.46,2.87,9,9,0,0,0,3.37,2.5,11.8,11.8,0,0,0,11.56-1.43c2-1.56,2-2.27,3.47-5.6-.58,0,.61-1.84.36-1.93a6.87,6.87,0,0,1-1.1-.6q-2.59,7-7.33,7A4.05,4.05,0,0,1,47,40.31q-1.1-1.89-1.1-6.69V.57ZM25.23,19.62c1,2,1.46,5.13,1.46,9.53q0,7.27-1.6,10.56A5.29,5.29,0,0,1,20,43a5.45,5.45,0,0,1-4.37-1.83,7.62,7.62,0,0,1-1.56-5.1V26.75q0-5.19,1.53-7.62a5.31,5.31,0,0,1,4.87-2.44,5,5,0,0,1,4.73,2.93M.64,14.76a3.61,3.61,0,0,1,.27,1.13A2.63,2.63,0,0,1,.64,17H3.57a3.26,3.26,0,0,1,2.77,1,6.36,6.36,0,0,1,.76,3.63V63.34h7V42.48a9.73,9.73,0,0,0,7.66,3.13,11.06,11.06,0,0,0,5.1-1.17,11.49,11.49,0,0,0,3.93-3.26,15.42,15.42,0,0,0,2.53-5.1,23.12,23.12,0,0,0,.9-6.66q0-7.34-3.1-11.33a10.52,10.52,0,0,0-8.83-4,12,12,0,0,0-4.36.76,12.68,12.68,0,0,0-3.83,2.43V14.76Z"/></svg>